<svg width="20" height="13" viewBox="0 0 20 13" fill="none" xmlns="http://www.w3.org/2000/svg">
<path d="M18.6338 12.9999C18.4728 12.9999 18.3253 12.9079 18.262 12.7568C18.2156 12.6472 17.0561 10.0464 12.721 9.53126C11.818 9.42163 10.7365 9.36541 9.42307 9.35557V12.5973C9.42307 12.747 9.34226 12.8826 9.20944 12.9543C9.07733 13.0231 8.91921 13.0133 8.79623 12.9311L0.467465 7.32468C0.355028 7.24949 0.288971 7.123 0.288971 6.99018C0.288971 6.85596 0.355028 6.73369 0.467465 6.65498L8.79975 1.04789C8.92273 0.962856 9.07944 0.957234 9.21295 1.02751C9.34647 1.09919 9.42588 1.23481 9.42588 1.38028V4.3971C11.2375 4.63322 19.035 6.03447 19.035 12.6008C19.035 12.7912 18.9008 12.9578 18.7125 12.9957C18.6865 12.9999 18.6591 12.9999 18.6338 12.9999Z" fill="white"/>
</svg>
