<?xml version="1.0" standalone="no"?>
<!DOCTYPE svg PUBLIC "-//W3C//DTD SVG 20010904//EN"
 "http://www.w3.org/TR/2001/REC-SVG-20010904/DTD/svg10.dtd">
<svg version="1.0" xmlns="http://www.w3.org/2000/svg"
 width="975.000000pt" height="237.000000pt" viewBox="0 0 975.000000 237.000000"
 preserveAspectRatio="xMidYMid meet">

<g transform="translate(0.000000,237.000000) scale(0.100000,-0.100000)"
fill="#000000" stroke="none">
<path d="M810 1846 c-133 -29 -199 -64 -271 -143 -58 -65 -81 -130 -81 -230 0
-111 28 -179 102 -253 58 -58 96 -80 310 -178 102 -46 156 -91 169 -139 26
-95 -64 -163 -215 -163 -113 0 -249 44 -331 106 l-33 25 0 -146 0 -146 35 -15
c81 -33 155 -46 300 -51 172 -6 258 8 361 56 149 70 224 217 196 385 -25 154
-92 222 -330 337 -90 44 -177 89 -194 102 -65 48 -78 126 -28 175 42 43 91 57
195 56 97 0 176 -19 257 -60 l49 -25 -3 138 -3 137 -70 19 c-94 25 -325 32
-415 13z"/>
<path d="M5300 1846 c-133 -29 -199 -64 -271 -143 -58 -65 -82 -133 -81 -231
0 -110 28 -178 102 -252 58 -58 96 -80 310 -178 138 -62 189 -122 169 -196
-19 -68 -97 -106 -215 -106 -113 0 -249 44 -331 106 l-33 25 0 -146 0 -146 46
-20 c70 -29 203 -49 333 -49 233 1 382 59 462 183 49 75 67 168 51 262 -25
153 -92 221 -330 336 -90 44 -177 89 -194 102 -65 48 -78 126 -28 175 42 43
91 57 195 56 97 0 176 -19 257 -60 l49 -25 -3 138 -3 137 -70 19 c-94 25 -325
32 -415 13z"/>
<path d="M1912 1480 c-282 -39 -441 -243 -418 -537 10 -137 55 -235 146 -316
94 -85 193 -117 358 -117 158 0 264 36 358 123 63 57 99 114 124 195 89 286
-45 569 -301 636 -75 19 -191 26 -267 16z m150 -225 c46 -7 92 -45 121 -99 19
-35 22 -57 22 -156 0 -96 -4 -123 -21 -161 -32 -68 -79 -100 -158 -106 -140
-12 -217 55 -234 200 -16 133 18 247 88 297 29 21 102 40 130 35 8 -2 32 -6
52 -10z"/>
<path d="M3055 1479 c-175 -27 -301 -114 -366 -252 -39 -84 -52 -164 -46 -272
9 -145 51 -239 143 -326 91 -84 197 -119 362 -119 158 0 269 39 364 128 82 77
119 155 138 289 35 258 -97 478 -322 537 -76 20 -200 27 -273 15z m182 -231
c44 -13 89 -67 108 -130 30 -101 13 -250 -35 -319 -59 -82 -215 -94 -299 -23
-53 45 -73 109 -73 224 0 73 4 98 25 143 49 107 146 144 274 105z"/>
<path d="M4369 1480 c-68 -12 -128 -46 -181 -102 l-48 -50 0 66 0 66 -150 0
-150 0 0 -465 0 -465 150 0 151 0 -3 298 -3 297 25 44 c43 75 103 105 185 90
47 -9 89 -51 104 -106 7 -23 11 -156 11 -330 l0 -293 146 0 145 0 -3 358 c-3
348 -4 358 -27 416 -45 111 -124 169 -246 180 -33 2 -81 1 -106 -4z"/>
<path d="M6402 1480 c-173 -24 -299 -107 -366 -241 -79 -157 -71 -386 17 -526
57 -90 173 -168 285 -192 75 -16 237 -14 305 4 163 42 280 151 327 303 89 286
-46 569 -301 636 -75 19 -191 26 -267 16z m150 -225 c46 -7 92 -45 121 -99 19
-35 22 -57 22 -156 0 -101 -3 -121 -24 -163 -34 -69 -77 -98 -155 -104 -139
-12 -214 52 -235 199 -17 124 16 242 83 293 32 25 105 46 136 40 8 -2 32 -6
52 -10z"/>
<path d="M7545 1479 c-249 -38 -396 -195 -412 -440 -11 -165 28 -290 122 -388
96 -101 206 -141 383 -141 158 0 269 39 364 128 83 78 121 157 137 293 33 260
-97 474 -321 533 -76 20 -200 27 -273 15z m182 -231 c71 -21 123 -123 123
-243 0 -74 -23 -167 -52 -207 -57 -81 -214 -93 -297 -22 -53 46 -74 111 -74
225 0 71 5 97 26 142 49 107 146 144 274 105z"/>
<path d="M8858 1480 c-65 -11 -143 -56 -188 -107 -21 -24 -40 -43 -44 -43 -3
0 -6 29 -6 65 l0 65 -145 0 -145 0 0 -465 0 -465 144 0 144 0 4 298 c3 295 3
297 28 341 43 75 103 105 185 90 47 -9 89 -51 104 -106 7 -23 11 -156 11 -330
l0 -293 146 0 145 0 -3 358 c-3 348 -4 358 -27 416 -45 111 -124 169 -246 180
-33 2 -81 1 -107 -4z"/>
</g>
</svg>
